<svg width="20" height="20" viewBox="0 0 20 20" fill="none" xmlns="http://www.w3.org/2000/svg">
<path d="M5.00002 16.667H15C15.4584 16.667 15.8334 17.042 15.8334 17.5003C15.8334 17.9587 15.4584 18.3337 15 18.3337H5.00002C4.54169 18.3337 4.16669 17.9587 4.16669 17.5003C4.16669 17.042 4.54169 16.667 5.00002 16.667ZM10 5.83366C9.08335 5.83366 8.33335 6.58366 8.33335 7.50033C8.33335 8.41699 9.08335 9.16699 10 9.16699C10.9167 9.16699 11.6667 8.41699 11.6667 7.50033C11.6667 6.58366 10.9167 5.83366 10 5.83366ZM10 1.66699C12.725 1.66699 15.8334 3.71699 15.8334 7.62533C15.8334 10.1087 14.0584 12.7253 10.5084 15.4503C10.2084 15.6837 9.79169 15.6837 9.49169 15.4503C5.94169 12.717 4.16669 10.1087 4.16669 7.62533C4.16669 3.71699 7.27502 1.66699 10 1.66699Z" fill="#333333" fill-opacity="0.7"/>
</svg>
