<svg width="20" height="20" viewBox="0 0 20 20" fill="none" xmlns="http://www.w3.org/2000/svg">
<g clip-path="url(#clip0_2229_191)">
<path d="M8.45554 11.467C9.61526 12.6435 11.0185 13.5518 12.5667 14.1281L14.6611 12.4615C14.7232 12.4187 14.7968 12.3958 14.8722 12.3958C14.9476 12.3958 15.0212 12.4187 15.0833 12.4615L18.9722 14.967C19.1199 15.0558 19.2448 15.1776 19.3373 15.323C19.4297 15.4684 19.4871 15.6332 19.5049 15.8046C19.5227 15.9759 19.5004 16.1491 19.4397 16.3103C19.3791 16.4716 19.2818 16.6165 19.1555 16.7337L17.3333 18.5337C17.0724 18.7915 16.7516 18.9808 16.3997 19.0845C16.0478 19.1882 15.6757 19.2032 15.3167 19.1281C11.7345 18.3883 8.43284 16.6556 5.78888 14.1281C3.20359 11.5755 1.41458 8.32748 0.638876 4.77812C0.562246 4.42459 0.57824 4.05725 0.685307 3.71172C0.792374 3.36618 0.986884 3.05416 1.24999 2.8059L3.13888 0.983677C3.25576 0.863559 3.39831 0.771441 3.55585 0.71422C3.71338 0.656999 3.88182 0.636159 4.04855 0.65326C4.21528 0.67036 4.37598 0.724958 4.51862 0.812966C4.66126 0.900973 4.78214 1.02011 4.87221 1.16145L7.4611 5.00034C7.50575 5.06062 7.52986 5.13366 7.52986 5.20868C7.52986 5.2837 7.50575 5.35673 7.4611 5.41701L5.75554 7.46701C6.34753 8.9842 7.26984 10.3506 8.45554 11.467Z" fill="#333333" fill-opacity="0.7"/>
</g>
<defs>
<clipPath id="clip0_2229_191">
<rect width="20" height="20" fill="white"/>
</clipPath>
</defs>
</svg>
